<svg width="202" height="201" viewBox="0 0 202 201" fill="none" xmlns="http://www.w3.org/2000/svg">
<path d="M60.0705 41.9413L57.4898 40.2643L58.592 43.1379L76.0247 88.5877L38.1864 119.212L35.7941 121.148L38.8676 120.988L87.4799 118.453L104.913 163.903L106.015 166.776L106.812 163.804L119.423 116.788L168.036 114.253L171.109 114.093L168.529 112.416L127.711 85.8927L140.322 38.8763L141.119 35.9037L138.727 37.8399L100.889 68.4642L60.0705 41.9413Z" fill="#5B6BFD" stroke="white" stroke-width="2"/>
<path d="M56.2516 52.3707L97.6789 79.2895L136.082 48.2081L123.282 95.9262L164.71 122.845L115.372 125.418L102.572 173.136L84.8793 127.008L35.5414 129.58L73.9445 98.4988L56.2516 52.3707Z" fill="#9747FF"/>
</svg>
